<svg xmlns="http://www.w3.org/2000/svg" viewBox="0 0 16 10.667" preserveAspectRatio="xMaxYMax meet">
  <defs>
    <style>
      .email-cls-1 {
        fill: #156b8f;
      }
    </style>
  </defs>
  <path class="email-cls-1" d="M8,19.766a4.1,4.1,0,0,1-2.411-.75L0,14.9v6.708a1.375,1.375,0,0,0,1.323,1.41H14.677A1.375,1.375,0,0,0,16,21.608V14.9l-5.589,4.116A4.1,4.1,0,0,1,8,19.766Z" transform="translate(0 -12.351)"/>
  <path class="email-cls-1" d="M0,1.061a1.062,1.062,0,0,0,.448.866L6.635,6.278A2.379,2.379,0,0,0,8,6.667a2.43,2.43,0,0,0,1.365-.39l6.187-4.351A1.062,1.062,0,0,0,16,1.061h0A1.055,1.055,0,0,0,14.955,0H1.045A1.055,1.055,0,0,0,0,1.061Z"/>
</svg>
