<svg xmlns="http://www.w3.org/2000/svg" xmlns:xlink="http://www.w3.org/1999/xlink" viewBox="0 0 54 54">
  <defs>
    <filter id="Ellipse_253" x="0" y="0" width="54" height="54" filterUnits="userSpaceOnUse">
      <feOffset dy="3" input="SourceAlpha"/>
      <feGaussianBlur stdDeviation="3" result="blur"/>
      <feFlood flood-opacity="0.161"/>
      <feComposite operator="in" in2="blur"/>
      <feComposite in="SourceGraphic"/>
    </filter>
  </defs>
  <g id="Icon:_Fraud_-_Payment" data-name="Icon: Fraud - Payment" transform="translate(9 6)">
    <g transform="matrix(1, 0, 0, 1, -9, -6)" filter="url(#Ellipse_253)">
      <circle id="Ellipse_253-2" data-name="Ellipse 253" cx="18" cy="18" r="18" transform="translate(9 6)" opacity="0.38"/>
    </g>
    <circle id="Ellipse_252" data-name="Ellipse 252" cx="16" cy="16" r="16" transform="translate(2 2)" fill="#5fcc67"/>
    <g id="Icon:_Payment" data-name="Icon: Payment" transform="translate(6 6)">
      <path id="Path_6379" data-name="Path 6379" d="M0,0H24V24H0Z" fill="none"/>
      <path id="Path_6380" data-name="Path 6380" d="M20,4H4A1.985,1.985,0,0,0,2.01,6L2,18a1.993,1.993,0,0,0,2,2H20a1.993,1.993,0,0,0,2-2V6A1.993,1.993,0,0,0,20,4Zm0,14H4V12H20ZM20,8H4V6H20Z" fill="#fff"/>
    </g>
  </g>
</svg>
