<svg xmlns="http://www.w3.org/2000/svg" xmlns:xlink="http://www.w3.org/1999/xlink" viewBox="0 0 24 24">
  <defs>
    <clipPath>
      <rect width="24" height="24" fill="none"/>
    </clipPath>
  </defs>
  <g clip-path="url(#clip-path)">
    <g transform="translate(-325 -484.999)" opacity="0.87">
      <rect width="24" height="24" transform="translate(325 484.999)" fill="none"/>
    </g>
    <g transform="translate(-13621.631 399.849)">
      <g transform="translate(13621.631 -394.848)">
        <g>
          <path d="M388.332,465.917v-2.924a5.093,5.093,0,0,0-3.281-1.775L378,460c.972,2.6,2.493,4.588,4.533,4.938Z" transform="translate(-378 -460)"/>
          <path d="M386.27,474.44a4.895,4.895,0,0,0,3.6,3.586l3.966.7V478.7a2.578,2.578,0,0,1-.276-1.16v-1.793Z" transform="translate(-383.225 -468.935)"/>
          <path d="M400.272,486.947a2.539,2.539,0,0,1-.434-.409l-4.588-.788h0a4.455,4.455,0,0,0,3.343,2.905l4.986.8c0-.059-.133-.162-.254-.247Z" transform="translate(-388.623 -475.954)"/>
          <path d="M415.83,473.6a1.081,1.081,0,0,1-.342-.057,1.045,1.045,0,0,1-.313-.166L412.84,471.6l-2.335-1.768a1.14,1.14,0,0,1-.446-.909v-7.613a1.118,1.118,0,0,1,1.1-1.131H420.5a1.118,1.118,0,0,1,1.1,1.131v2.854h-2.209v-1.723h-7.125v5.912l1.782,1.35,1.779,1.354,1.782-1.361,1.782-1.361h-3.2l-.736-1.131.736-1.131h4.3a1.118,1.118,0,0,1,1.1,1.131v1.719a1.14,1.14,0,0,1-.446.909l-2.335,1.768-2.335,1.772A1.109,1.109,0,0,1,415.83,473.6Z" transform="translate(-397.604 -460.114)"/>
        </g>
      </g>
    </g>
  </g>
</svg>
