<svg xmlns="http://www.w3.org/2000/svg" xmlns:xlink="http://www.w3.org/1999/xlink" viewBox="0 0 24 24">
  <defs>
    <clipPath>
      <rect width="24" height="24" fill="none"/>
    </clipPath>
  </defs>
  <g clip-path="url(#clip-path)">
    <path d="M-4751,20752h-12.01a2,2,0,0,1-1.99-2l.01-16a2,2,0,0,1,1.99-2h8l6,6v12A2,2,0,0,1-4751,20752Zm-2.5-11h0v6h1.5v-2h1.5v-1.5h-1.5v-1h1.5v-1.5Zm-5,0h0v6h2.5a1.5,1.5,0,0,0,1.5-1.5v-3a1.5,1.5,0,0,0-1.5-1.5Zm-5,0h0v6h1.5v-2h1a1.5,1.5,0,0,0,1.5-1.5v-1a1.5,1.5,0,0,0-1.5-1.5Zm7.5-7.5v5.5h5.5Zm0,12h-1v-3h1v3Zm-5-2h-1v-1h1v1Z" transform="translate(4769 -20730)"/>
  </g>
</svg>
