<svg xmlns="http://www.w3.org/2000/svg" xmlns:xlink="http://www.w3.org/1999/xlink" viewBox="0 0 24 24">
  <defs>
    <clipPath>
      <rect width="24" height="24" fill="none"/>
    </clipPath>
  </defs>
  <g clip-path="url(#clip-path)">
    <g transform="translate(1 2)">
      <path d="M11,0A10,10,0,1,1,1,10H3A8,8,0,1,0,4.07,6H1.832A10,10,0,0,1,11,0Zm.937,4V5.46a2.568,2.568,0,0,1,1.881,2.36l.011.18h-1.3a1.3,1.3,0,0,0-1.473-1.4c-1,0-1.591.507-1.591,1.233,0,.633.43,1.04,1.768,1.433S14,10.307,14,12.2a2.316,2.316,0,0,1-1.9,2.328l-.163.039V16H10.169V14.553A2.661,2.661,0,0,1,8.016,12.2L8,12H9.3c.065.787.542,1.4,1.756,1.4,1.3,0,1.591-.733,1.591-1.193,0-.62-.295-1.207-1.768-1.607-1.644-.447-2.77-1.213-2.77-2.753A2.45,2.45,0,0,1,10,5.486l.17-.046V4ZM6,6A34.654,34.654,0,0,0,3,9L0,6Z" fill-rule="evenodd"/>
    </g>
    <rect width="24" height="24" fill="none"/>
  </g>
</svg>
