<svg xmlns="http://www.w3.org/2000/svg" viewBox="0 0 48 12.857">
  <g transform="translate(-4 -7.51)">
    <path d="M17.323,9.56a30.42,30.42,0,0,0-5.94-.681,30.4,30.4,0,0,0-5.94.681,1.176,1.176,0,0,0-.8.753A17.271,17.271,0,0,0,4,14.623a17.271,17.271,0,0,0,.639,4.31,1.169,1.169,0,0,0,.8.753,30.42,30.42,0,0,0,5.94.681,30.42,30.42,0,0,0,5.94-.681,1.176,1.176,0,0,0,.8-.753,17.271,17.271,0,0,0,.639-4.31,17.271,17.271,0,0,0-.639-4.31A1.166,1.166,0,0,0,17.323,9.56ZM21.9,19.685a30.42,30.42,0,0,0,5.94.681,30.4,30.4,0,0,0,5.94-.681,1.176,1.176,0,0,0,.8-.753,17.284,17.284,0,0,0,.639-4.31,17.271,17.271,0,0,0-.639-4.31,1.173,1.173,0,0,0-.8-.753,30.42,30.42,0,0,0-5.94-.681,30.42,30.42,0,0,0-5.94.681,1.17,1.17,0,0,0-.8.753,17.178,17.178,0,0,0-.641,4.31,17.271,17.271,0,0,0,.639,4.31A1.166,1.166,0,0,0,21.9,19.685Zm28.737-1a30.65,30.65,0,0,1-6.021.687,30.612,30.612,0,0,1-6.019-.687,1.572,1.572,0,0,1-.967-.741c.086.387.171.725.243.989a1.169,1.169,0,0,0,.8.753,30.42,30.42,0,0,0,5.94.681,30.4,30.4,0,0,0,5.94-.681,1.17,1.17,0,0,0,.8-.753c.072-.262.158-.6.242-.987A1.577,1.577,0,0,1,50.637,18.685Zm-11.961-.372a30.447,30.447,0,0,0,5.94.679,30.564,30.564,0,0,0,5.94-.679,1.17,1.17,0,0,0,.8-.753A17.165,17.165,0,0,0,52,13.251a17.271,17.271,0,0,0-.639-4.31,1.17,1.17,0,0,0-.8-.753,30.447,30.447,0,0,0-5.94-.679,30.565,30.565,0,0,0-5.94.679,1.176,1.176,0,0,0-.8.753,17.284,17.284,0,0,0-.639,4.31,17.257,17.257,0,0,0,.639,4.31A1.16,1.16,0,0,0,38.677,18.313Z" fill="#fff"/>
  </g>
</svg>
