<svg xmlns="http://www.w3.org/2000/svg" xmlns:xlink="http://www.w3.org/1999/xlink" width="54" height="54" viewBox="0 0 54 54">
  <defs>
    <filter x="0" y="0" width="54" height="54" filterUnits="userSpaceOnUse">
      <feOffset dy="3" input="SourceAlpha"/>
      <feGaussianBlur stdDeviation="3" result="blur"/>
      <feFlood flood-opacity="0.161"/>
      <feComposite operator="in" in2="blur"/>
      <feComposite in="SourceGraphic"/>
    </filter>
  </defs>
  <g transform="translate(9 6)">
    <g>
      <g transform="matrix(1, 0, 0, 1, -9, -6)" filter="url(#Ellipse_249)">
        <circle id="Ellipse_249-2" data-name="Ellipse 249" cx="18" cy="18" r="18" transform="translate(9 6)" opacity="0.38"/>
      </g>
      <circle id="Ellipse_248" data-name="Ellipse 248" cx="16" cy="16" r="16" transform="translate(2 2)" fill="#eed202"/>
      <g id="Icon:_Network" data-name="Icon: Network" transform="translate(6 6)">
        <path id="Path_6381" data-name="Path 6381" d="M0,0H24V24H0Z" fill="none"/>
        <path id="Path_6382" data-name="Path 6382" d="M1,9l2,2a12.729,12.729,0,0,1,18,0l2-2A15.566,15.566,0,0,0,1,9Zm8,8,3,3,3-3A4.237,4.237,0,0,0,9,17ZM5,13l2,2a7.074,7.074,0,0,1,10,0l2-2A9.91,9.91,0,0,0,5,13Z" fill="#fff"/>
      </g>
    </g>
  </g>
</svg>
